name rise30.3154peak39.0474fall46.5389.mot
datacolumns 19
datarows 14
range 20.10992700000000 20.13158900000000
endheader
time	ground_force1_vx	ground_force1_vy	ground_force1_vz	ground_force1_px	ground_force1_py	ground_force1_pz	ground_force2_vx	ground_force2_vy	ground_force2_vz	ground_force2_px	ground_force2_py	ground_force2_pz	ground_torque1_x	ground_torque1_y	ground_torque1_z	ground_torque2_x	ground_torque2_y	ground_torque2_z	
20.10992700000000	-50.37530400000000	770.05692499999998	69.36688100000001	0.14062500000000	0.00000000000000	0.14811200000000	0.00000000000000	0.00000000000000	0.00000000000000	0.00000000000000	0.00000000000000	0.00000000000000	0.00000000000000	33.05192900000000	0.00000000000000	0.00000000000000	0.00000000000000	0.00000000000000	
20.11159400000000	-50.63593600000000	766.95080099999996	69.00000000000000	0.13992400000000	0.00000000000000	0.14802800000000	0.00000000000000	0.00000000000000	0.00000000000000	0.00000000000000	0.00000000000000	0.00000000000000	0.00000000000000	32.91484200000000	0.00000000000000	0.00000000000000	0.00000000000000	0.00000000000000	
20.11326800000000	-50.90136700000000	763.81226200000003	68.61290099999999	0.13922200000000	0.00000000000000	0.14794000000000	-1.97102700000000	3.58825600000000	1.05210100000000	0.00000000000000	0.00000000000000	0.00000000000000	0.00000000000000	32.77613800000000	0.00000000000000	0.00000000000000	0.37091000000000	0.00000000000000	
20.11492900000000	-51.17179100000000	760.64105600000005	68.20566400000000	0.13852100000000	0.00000000000000	0.14784600000000	-3.14571800000000	7.06126900000000	1.76137800000000	0.00000000000000	0.00000000000000	0.00000000000000	0.00000000000000	32.63590800000000	0.00000000000000	0.00000000000000	0.63044300000000	0.00000000000000	
20.11659400000000	-51.44738100000000	757.43672900000001	67.77838500000000	0.13782000000000	0.00000000000000	0.14774700000000	-4.47310100000000	11.27909100000000	2.57990900000000	0.00000000000000	0.00000000000000	0.00000000000000	0.00000000000000	32.49424000000000	0.00000000000000	0.00000000000000	0.93180000000000	0.00000000000000	
20.11827400000000	-51.72828900000000	754.19862799999999	67.33117799999999	0.13711900000000	0.00000000000000	0.14764200000000	-5.91268000000000	16.20337500000000	3.48767000000000	0.00000000000000	0.00000000000000	0.00000000000000	0.00000000000000	32.35122400000000	0.00000000000000	0.00000000000000	1.26817100000000	0.00000000000000	
20.11992800000000	-52.01464200000000	750.92590099999995	66.86417500000000	0.13641800000000	0.00000000000000	0.14753200000000	-7.41396400000000	21.76379500000000	4.45831600000000	0.00000000000000	0.00000000000000	0.00000000000000	0.00000000000000	32.20694400000000	0.00000000000000	0.00000000000000	1.63041400000000	0.00000000000000	
20.12159400000000	-52.30654300000000	747.61750199999994	66.37752300000000	0.13571800000000	0.00000000000000	0.14741600000000	-8.91979200000000	27.86349700000000	5.46091600000000	0.35025700000000	0.00000000000000	-0.04274800000000	0.00000000000000	32.06148500000000	0.00000000000000	0.00000000000000	3.53908800000000	0.00000000000000	
20.12325800000000	-52.60406900000000	744.27219100000002	65.87138500000000	0.13501800000000	0.00000000000000	0.14729500000000	-10.37050700000000	34.38740600000000	6.46222400000000	0.35444300000000	0.00000000000000	-0.04403400000000	0.00000000000000	31.91492800000000	0.00000000000000	0.00000000000000	4.22200100000000	0.00000000000000	
20.12492600000000	-52.90726300000000	740.88854400000002	65.34593900000000	0.13431800000000	0.00000000000000	0.14716700000000	-11.70845700000000	41.21229100000000	7.42920500000000	0.35821100000000	0.00000000000000	-0.04518700000000	0.00000000000000	31.76734800000000	0.00000000000000	0.00000000000000	4.89226500000000	0.00000000000000	
20.12659300000000	-53.21614200000000	737.46495300000004	64.80137499999999	0.13362000000000	0.00000000000000	0.14703400000000	-12.88219700000000	48.21714300000000	8.33146700000000	0.36163400000000	0.00000000000000	-0.04622800000000	0.00000000000000	31.61881900000000	0.00000000000000	0.00000000000000	5.53001800000000	0.00000000000000	
20.12826300000000	-53.53068500000000	733.99963600000001	64.23789700000000	0.13292400000000	0.00000000000000	0.14689500000000	-13.84988000000000	55.29247400000000	9.14328100000000	0.36477200000000	0.00000000000000	-0.04717400000000	0.00000000000000	31.46940700000000	0.00000000000000	0.00000000000000	6.11815200000000	0.00000000000000	
20.12993300000000	-53.85084000000000	730.49063899999999	63.65572400000000	0.13222900000000	0.00000000000000	0.14675000000000	-14.58147700000000	62.34754800000000	9.84499300000000	0.36767000000000	0.00000000000000	-0.04803800000000	0.00000000000000	31.31917200000000	0.00000000000000	0.00000000000000	6.64326900000000	0.00000000000000	
20.13158900000000	-54.17651300000000	726.93584999999996	63.05508400000000	0.13153800000000	0.00000000000000	0.14659900000000	-15.05974200000000	69.31504000000000	10.42374500000000	0.37036800000000	0.00000000000000	-0.04883100000000	0.00000000000000	31.16816700000000	0.00000000000000	0.00000000000000	7.09621600000000	0.00000000000000	
